{"asset":{"generator":"3D Builder","version":"2.0"},"scene":0,"scenes":[{"nodes":[0]}],"nodes":[{"children":[1,2]},{"mesh":0,"matrix":[39.370079040527344,0,0,0,0,-4.6932791519793682E-6,-39.370075225830078,0,0,39.370075225830078,-4.6932791519793682E-6,0,-7.5418829917907715,-4.6109695434570313,-525.02130126953125,1]},{"mesh":1,"matrix":[39.370079040527344,0,0,0,0,-4.6932791519793682E-6,-39.370075225830078,0,0,39.370075225830078,-4.6932791519793682E-6,0,-7.5418829917907715,-4.6109695434570313,-525.02130126953125,1]}],"meshes":[{"primitives":[{"attributes":{"POSITION":0,"COLOR_0":1},"mode":4,"indices":2}]},{"primitives":[{"attributes":{"POSITION":3,"COLOR_0":4},"mode":4,"indices":5}]}],"accessors":[{"bufferView":0,"byteOffset":0,"count":9202482,"componentType":5126,"type":"VEC3","min":[-0.056360833346843719,-13.411117553710937,0.16582559049129486],"max":[0.20698636770248413,-13.134613990783691,0.36897480487823486]},{"bufferView":1,"byteOffset":0,"count":9202482,"componentType":5121,"type":"VEC4","normalized":true},{"bufferView":2,"byteOffset":0,"count":37543278,"componentType":5125,"type":"SCALAR"},{"bufferView":3,"byteOffset":0,"count":1258,"componentType":5126,"type":"VEC3","min":[0.1684291809797287,-13.142436027526855,0.17629039287567139],"max":[0.1729503870010376,-13.139897346496582,0.18370719254016876]},{"bufferView":4,"byteOffset":0,"count":1258,"componentType":5121,"type":"VEC4","normalized":true},{"bufferView":5,"byteOffset":0,"count":6666,"componentType":5125,"type":"SCALAR"}],"bufferViews":[{"buffer":0,"byteOffset":0,"byteLength":110429784,"byteStride":12,"target":34962},{"buffer":0,"byteOffset":110429784,"byteLength":36809928,"byteStride":4,"target":34962},{"buffer":0,"byteOffset":147239712,"byteLength":150173112,"target":34963},{"buffer":0,"byteOffset":297412824,"byteLength":15096,"byteStride":12,"target":34962},{"buffer":0,"byteOffset":297427920,"byteLength":5032,"byteStride":4,"target":34962},{"buffer":0,"byteOffset":297432952,"byteLength":26664,"target":34963}],"buffers":[{"byteLength":297459616,"uri":"Candi Bersih Semuaa.bin"}]}